<svg width="26" height="26" viewBox="0 0 26 26" fill="none" xmlns="http://www.w3.org/2000/svg">
<g clip-path="url(#clip0_11_903)">
<path fill-rule="evenodd" clip-rule="evenodd" d="M26 3.25C26 1.45625 24.5437 0 22.75 0H3.25C1.45625 0 0 1.45625 0 3.25V22.75C0 24.5437 1.45625 26 3.25 26H22.75C24.5437 26 26 24.5437 26 22.75V3.25Z" fill="#2867B2"/>
<path d="M7.45534 9.07275H3.10034V22.1724H7.45534V9.07275Z" fill="white"/>
<path d="M5.30725 2.75635C3.81728 2.75635 2.84375 3.73592 2.84375 5.01982C2.84375 6.27676 3.78767 7.28334 5.24961 7.28334H5.27775C6.79626 7.28334 7.74145 6.27676 7.74145 5.01982C7.71327 3.73592 6.79636 2.75635 5.30725 2.75635Z" fill="white"/>
<path d="M18.143 8.76489C15.833 8.76489 14.7983 10.0353 14.2189 10.9276V9.07293H9.86499C9.92273 10.3017 9.86499 22.1725 9.86499 22.1725H14.2188V14.8568C14.2188 14.4652 14.247 14.0737 14.3624 13.7939C14.6766 13.0118 15.3935 12.2018 16.5964 12.2018C18.1712 12.2018 18.8021 13.4035 18.8021 15.1637V22.1725H23.1562V14.6604C23.1562 10.6367 21.0079 8.76489 18.143 8.76489Z" fill="white"/>
</g>
<defs>
<clipPath id="clip0_11_903">
<rect width="26" height="26" fill="white"/>
</clipPath>
</defs>
</svg>
